<mxfile host="app.diagrams.net" agent="Mozilla/5.0 (Macintosh; Intel Mac OS X 10_15_7) AppleWebKit/537.36 (KHTML, like Gecko) Chrome/137.0.0.0 Safari/537.36 Edg/137.0.0.0" version="28.1.0">
  <diagram name="第 1 页" id="U9iEHARXwu_wdA87Ol2w">
    <mxGraphModel dx="1657" dy="935" grid="1" gridSize="10" guides="1" tooltips="1" connect="1" arrows="1" fold="1" page="1" pageScale="1" pageWidth="1169" pageHeight="827" math="0" shadow="0">
      <root>
        <mxCell id="0" />
        <mxCell id="1" parent="0" />
        <mxCell id="o7UMW3g7J9LlOuHgqQY7-1" value="" style="rounded=0;whiteSpace=wrap;html=1;" vertex="1" parent="1">
          <mxGeometry x="730" y="140" width="680" height="100" as="geometry" />
        </mxCell>
        <mxCell id="o7UMW3g7J9LlOuHgqQY7-2" style="rounded=0;orthogonalLoop=1;jettySize=auto;html=1;exitX=0.5;exitY=1;exitDx=0;exitDy=0;entryX=0.5;entryY=0;entryDx=0;entryDy=0;" edge="1" parent="1" source="o7UMW3g7J9LlOuHgqQY7-3" target="o7UMW3g7J9LlOuHgqQY7-12">
          <mxGeometry relative="1" as="geometry" />
        </mxCell>
        <mxCell id="o7UMW3g7J9LlOuHgqQY7-3" value="小于003索引&lt;div&gt;的数据&lt;span style=&quot;background-color: transparent; color: light-dark(rgb(0, 0, 0), rgb(255, 255, 255));&quot;&gt;磁盘地址&lt;/span&gt;&lt;/div&gt;" style="rounded=1;whiteSpace=wrap;html=1;" vertex="1" parent="1">
          <mxGeometry x="770" y="160" width="120" height="60" as="geometry" />
        </mxCell>
        <mxCell id="o7UMW3g7J9LlOuHgqQY7-4" value="&lt;b&gt;&lt;font style=&quot;font-size: 18px;&quot;&gt;003&lt;/font&gt;&lt;/b&gt;&lt;div&gt;（冗余的索引）&lt;/div&gt;" style="rounded=1;whiteSpace=wrap;html=1;" vertex="1" parent="1">
          <mxGeometry x="890" y="160" width="120" height="60" as="geometry" />
        </mxCell>
        <mxCell id="o7UMW3g7J9LlOuHgqQY7-5" value="&lt;b&gt;&lt;font style=&quot;font-size: 18px;&quot;&gt;005&lt;/font&gt;&lt;/b&gt;&lt;div&gt;（&lt;span style=&quot;background-color: transparent; color: light-dark(rgb(0, 0, 0), rgb(255, 255, 255));&quot;&gt;冗余的索引&lt;/span&gt;&lt;span style=&quot;background-color: transparent; color: light-dark(rgb(0, 0, 0), rgb(255, 255, 255));&quot;&gt;）&lt;/span&gt;&lt;/div&gt;" style="rounded=1;whiteSpace=wrap;html=1;" vertex="1" parent="1">
          <mxGeometry x="1130" y="160" width="120" height="60" as="geometry" />
        </mxCell>
        <mxCell id="o7UMW3g7J9LlOuHgqQY7-6" style="rounded=0;orthogonalLoop=1;jettySize=auto;html=1;exitX=0.5;exitY=1;exitDx=0;exitDy=0;entryX=0.5;entryY=0;entryDx=0;entryDy=0;" edge="1" parent="1" source="o7UMW3g7J9LlOuHgqQY7-7" target="o7UMW3g7J9LlOuHgqQY7-17">
          <mxGeometry relative="1" as="geometry" />
        </mxCell>
        <mxCell id="o7UMW3g7J9LlOuHgqQY7-7" value="大于等于005索引&lt;div&gt;的数据磁盘地址&lt;/div&gt;" style="rounded=1;whiteSpace=wrap;html=1;" vertex="1" parent="1">
          <mxGeometry x="1250" y="160" width="120" height="60" as="geometry" />
        </mxCell>
        <mxCell id="o7UMW3g7J9LlOuHgqQY7-8" style="edgeStyle=orthogonalEdgeStyle;rounded=0;orthogonalLoop=1;jettySize=auto;html=1;exitX=0.5;exitY=1;exitDx=0;exitDy=0;entryX=0.5;entryY=0;entryDx=0;entryDy=0;" edge="1" parent="1" source="o7UMW3g7J9LlOuHgqQY7-9" target="o7UMW3g7J9LlOuHgqQY7-22">
          <mxGeometry relative="1" as="geometry" />
        </mxCell>
        <mxCell id="o7UMW3g7J9LlOuHgqQY7-9" value="&lt;div&gt;小于005&lt;span style=&quot;background-color: transparent; color: light-dark(rgb(0, 0, 0), rgb(255, 255, 255));&quot;&gt;索引&lt;/span&gt;&lt;/div&gt;&lt;div&gt;大于等于003索引&lt;/div&gt;&lt;div&gt;&lt;span style=&quot;background-color: transparent; color: light-dark(rgb(0, 0, 0), rgb(255, 255, 255));&quot;&gt;的&lt;/span&gt;数据&lt;span style=&quot;background-color: transparent; color: light-dark(rgb(0, 0, 0), rgb(255, 255, 255));&quot;&gt;磁盘地址&lt;/span&gt;&lt;/div&gt;" style="rounded=1;whiteSpace=wrap;html=1;" vertex="1" parent="1">
          <mxGeometry x="1010" y="160" width="120" height="60" as="geometry" />
        </mxCell>
        <mxCell id="o7UMW3g7J9LlOuHgqQY7-10" value="" style="shape=curlyBracket;whiteSpace=wrap;html=1;rounded=1;flipH=1;labelPosition=right;verticalLabelPosition=middle;align=left;verticalAlign=middle;direction=south;" vertex="1" parent="1">
          <mxGeometry x="730" y="110" width="680" height="20" as="geometry" />
        </mxCell>
        <mxCell id="o7UMW3g7J9LlOuHgqQY7-11" value="索引页" style="text;strokeColor=none;fillColor=none;html=1;fontSize=24;fontStyle=1;verticalAlign=middle;align=center;" vertex="1" parent="1">
          <mxGeometry x="1020" y="70" width="100" height="40" as="geometry" />
        </mxCell>
        <mxCell id="o7UMW3g7J9LlOuHgqQY7-12" value="" style="rounded=0;whiteSpace=wrap;html=1;" vertex="1" parent="1">
          <mxGeometry x="450" y="380" width="320" height="160" as="geometry" />
        </mxCell>
        <mxCell id="o7UMW3g7J9LlOuHgqQY7-13" value="001" style="rounded=1;whiteSpace=wrap;html=1;fontStyle=1;fontSize=18;" vertex="1" parent="1">
          <mxGeometry x="490" y="400" width="120" height="60" as="geometry" />
        </mxCell>
        <mxCell id="o7UMW3g7J9LlOuHgqQY7-14" value="002" style="rounded=1;whiteSpace=wrap;html=1;fontStyle=1;fontSize=18;" vertex="1" parent="1">
          <mxGeometry x="610" y="400" width="120" height="60" as="geometry" />
        </mxCell>
        <mxCell id="o7UMW3g7J9LlOuHgqQY7-15" value="001的整行数据" style="rounded=1;whiteSpace=wrap;html=1;" vertex="1" parent="1">
          <mxGeometry x="490" y="460" width="120" height="60" as="geometry" />
        </mxCell>
        <mxCell id="o7UMW3g7J9LlOuHgqQY7-16" value="002的整行数据" style="rounded=1;whiteSpace=wrap;html=1;" vertex="1" parent="1">
          <mxGeometry x="610" y="460" width="120" height="60" as="geometry" />
        </mxCell>
        <mxCell id="o7UMW3g7J9LlOuHgqQY7-17" value="" style="rounded=0;whiteSpace=wrap;html=1;" vertex="1" parent="1">
          <mxGeometry x="1370" y="380" width="320" height="160" as="geometry" />
        </mxCell>
        <mxCell id="o7UMW3g7J9LlOuHgqQY7-18" value="005" style="rounded=1;whiteSpace=wrap;html=1;fontStyle=1;fontSize=18;" vertex="1" parent="1">
          <mxGeometry x="1410" y="400" width="120" height="60" as="geometry" />
        </mxCell>
        <mxCell id="o7UMW3g7J9LlOuHgqQY7-19" value="006" style="rounded=1;whiteSpace=wrap;html=1;fontStyle=1;fontSize=18;" vertex="1" parent="1">
          <mxGeometry x="1530" y="400" width="120" height="60" as="geometry" />
        </mxCell>
        <mxCell id="o7UMW3g7J9LlOuHgqQY7-20" value="005的整行数据" style="rounded=1;whiteSpace=wrap;html=1;" vertex="1" parent="1">
          <mxGeometry x="1410" y="460" width="120" height="60" as="geometry" />
        </mxCell>
        <mxCell id="o7UMW3g7J9LlOuHgqQY7-21" value="006的整行数据" style="rounded=1;whiteSpace=wrap;html=1;" vertex="1" parent="1">
          <mxGeometry x="1530" y="460" width="120" height="60" as="geometry" />
        </mxCell>
        <mxCell id="o7UMW3g7J9LlOuHgqQY7-22" value="" style="rounded=0;whiteSpace=wrap;html=1;" vertex="1" parent="1">
          <mxGeometry x="910" y="380" width="320" height="160" as="geometry" />
        </mxCell>
        <mxCell id="o7UMW3g7J9LlOuHgqQY7-23" value="003" style="rounded=1;whiteSpace=wrap;html=1;fontStyle=1;fontSize=18;" vertex="1" parent="1">
          <mxGeometry x="950" y="400" width="120" height="60" as="geometry" />
        </mxCell>
        <mxCell id="o7UMW3g7J9LlOuHgqQY7-24" value="004" style="rounded=1;whiteSpace=wrap;html=1;fontStyle=1;fontSize=18;" vertex="1" parent="1">
          <mxGeometry x="1070" y="400" width="120" height="60" as="geometry" />
        </mxCell>
        <mxCell id="o7UMW3g7J9LlOuHgqQY7-25" value="003的整行数据" style="rounded=1;whiteSpace=wrap;html=1;" vertex="1" parent="1">
          <mxGeometry x="950" y="460" width="120" height="60" as="geometry" />
        </mxCell>
        <mxCell id="o7UMW3g7J9LlOuHgqQY7-26" value="004的整行数据" style="rounded=1;whiteSpace=wrap;html=1;" vertex="1" parent="1">
          <mxGeometry x="1070" y="460" width="120" height="60" as="geometry" />
        </mxCell>
        <mxCell id="o7UMW3g7J9LlOuHgqQY7-27" value="" style="endArrow=classic;startArrow=classic;html=1;rounded=0;entryX=0;entryY=0.5;entryDx=0;entryDy=0;exitX=1;exitY=0.5;exitDx=0;exitDy=0;" edge="1" parent="1" source="o7UMW3g7J9LlOuHgqQY7-12" target="o7UMW3g7J9LlOuHgqQY7-22">
          <mxGeometry width="50" height="50" relative="1" as="geometry">
            <mxPoint x="805" y="470" as="sourcePoint" />
            <mxPoint x="855" y="420" as="targetPoint" />
          </mxGeometry>
        </mxCell>
        <mxCell id="o7UMW3g7J9LlOuHgqQY7-28" value="" style="endArrow=classic;startArrow=classic;html=1;rounded=0;entryX=0;entryY=0.5;entryDx=0;entryDy=0;exitX=1;exitY=0.5;exitDx=0;exitDy=0;" edge="1" parent="1" source="o7UMW3g7J9LlOuHgqQY7-22" target="o7UMW3g7J9LlOuHgqQY7-17">
          <mxGeometry width="50" height="50" relative="1" as="geometry">
            <mxPoint x="1270" y="450" as="sourcePoint" />
            <mxPoint x="990" y="450" as="targetPoint" />
          </mxGeometry>
        </mxCell>
        <mxCell id="o7UMW3g7J9LlOuHgqQY7-29" value="" style="shape=curlyBracket;whiteSpace=wrap;html=1;rounded=1;flipH=1;labelPosition=right;verticalLabelPosition=middle;align=left;verticalAlign=middle;direction=north;" vertex="1" parent="1">
          <mxGeometry x="450" y="550" width="320" height="20" as="geometry" />
        </mxCell>
        <mxCell id="o7UMW3g7J9LlOuHgqQY7-30" value="数据页" style="text;strokeColor=none;fillColor=none;html=1;fontSize=24;fontStyle=1;verticalAlign=middle;align=center;" vertex="1" parent="1">
          <mxGeometry x="560" y="570" width="100" height="40" as="geometry" />
        </mxCell>
        <mxCell id="o7UMW3g7J9LlOuHgqQY7-31" value="" style="shape=curlyBracket;whiteSpace=wrap;html=1;rounded=1;flipH=1;labelPosition=right;verticalLabelPosition=middle;align=left;verticalAlign=middle;direction=north;" vertex="1" parent="1">
          <mxGeometry x="910" y="550" width="320" height="20" as="geometry" />
        </mxCell>
        <mxCell id="o7UMW3g7J9LlOuHgqQY7-32" value="数据页" style="text;strokeColor=none;fillColor=none;html=1;fontSize=24;fontStyle=1;verticalAlign=middle;align=center;" vertex="1" parent="1">
          <mxGeometry x="1020" y="570" width="100" height="40" as="geometry" />
        </mxCell>
        <mxCell id="o7UMW3g7J9LlOuHgqQY7-33" value="" style="shape=curlyBracket;whiteSpace=wrap;html=1;rounded=1;flipH=1;labelPosition=right;verticalLabelPosition=middle;align=left;verticalAlign=middle;direction=north;" vertex="1" parent="1">
          <mxGeometry x="1370" y="550" width="320" height="20" as="geometry" />
        </mxCell>
        <mxCell id="o7UMW3g7J9LlOuHgqQY7-34" value="数据页" style="text;strokeColor=none;fillColor=none;html=1;fontSize=24;fontStyle=1;verticalAlign=middle;align=center;" vertex="1" parent="1">
          <mxGeometry x="1480" y="570" width="100" height="40" as="geometry" />
        </mxCell>
        <mxCell id="o7UMW3g7J9LlOuHgqQY7-35" value="互相指向对方的地址" style="text;html=1;align=center;verticalAlign=middle;whiteSpace=wrap;rounded=0;" vertex="1" parent="1">
          <mxGeometry x="780" y="430" width="110" height="30" as="geometry" />
        </mxCell>
        <mxCell id="o7UMW3g7J9LlOuHgqQY7-36" value="互相指向对方的地址" style="text;html=1;align=center;verticalAlign=middle;whiteSpace=wrap;rounded=0;" vertex="1" parent="1">
          <mxGeometry x="1240" y="430" width="110" height="30" as="geometry" />
        </mxCell>
      </root>
    </mxGraphModel>
  </diagram>
</mxfile>
